<?xml version="1.0" encoding="utf-8"?>
<!-- Generator: Adobe Illustrator 25.3.1, SVG Export Plug-In . SVG Version: 6.00 Build 0)  -->
<svg version="1.1" id="圖層_1" xmlns="http://www.w3.org/2000/svg" xmlns:xlink="http://www.w3.org/1999/xlink" x="0px" y="0px"
	 viewBox="0 0 24 22" style="enable-background:new 0 0 24 22;" xml:space="preserve">
<style type="text/css">
	.st0{fill:#FF6600;}
</style>
<path class="st0" d="M22.6,6.3L12.5,0.9c-0.3-0.2-0.7-0.2-1,0L1.4,6.3C0.9,6.6,0.8,7.2,1,7.7C1.2,8,1.5,8.2,1.9,8.2
	c0.2,0,0.3,0,0.5-0.1l0.7-0.4L4.7,19C4.9,20.2,6,21,7.4,21h9.3c1.3,0,2.4-0.8,2.7-2.1l1.6-11.2l0.7,0.4c0.5,0.3,1.1,0.1,1.4-0.4
	C23.2,7.2,23.1,6.6,22.6,6.3L22.6,6.3z M12,14.4c-1.8,0-3.3-1.5-3.3-3.2c0-1.8,1.5-3.3,3.3-3.3s3.2,1.5,3.2,3.3
	C15.2,13,13.8,14.4,12,14.4z"/>
</svg>
